M48
; DRILL file {KiCad (5.1.4-0-10_14)} date 2020 January 19, Sunday 01:39:04
; FORMAT={-:-/ absolute / inch / decimal}
; #@! TF.CreationDate,2020-01-19T01:39:04+09:00
; #@! TF.GenerationSoftware,Kicad,Pcbnew,(5.1.4-0-10_14)
; #@! TF.FileFunction,Plated,1,2,PTH
FMAT,2
INCH
T1C0.0157
T2C0.0236
T3C0.0394
T4C0.0409
T5C0.0472
T6C0.0579
%
G90
G05
T1
X1.465Y-2.195
X2.515Y-2.27
X3.255Y-2.3
X4.005Y-2.305
X4.755Y-2.325
X5.495Y-2.35
X6.405Y-3.04
X6.63Y-3.04
X7.45Y-3.075
X10.2225Y-2.6475
X10.225Y-2.73
X10.3652Y-2.4302
X10.47Y-2.19
X10.515Y-2.715
X10.53Y-1.985
X10.555Y-4.2659
X10.6Y-3.465
X10.655Y-2.8669
X10.685Y-1.855
X10.78Y-3.11
X10.8031Y-2.9919
X10.84Y-1.63
X10.87Y-2.055
X10.89Y-1.63
X10.91Y-2.555
X10.955Y-1.855
X11.005Y-2.22
X11.005Y-2.385
X11.055Y-2.945
X11.07Y-2.355
X11.11Y-3.15
X11.185Y-1.94
X11.22Y-1.585
X11.28Y-3.02
X11.295Y-3.14
X11.365Y-1.75
X11.44Y-1.805
X11.495Y-2.17
X11.51Y-1.985
X11.545Y-2.59
X11.585Y-2.985
X11.6048Y-2.0252
X11.625Y-1.96
X11.625Y-2.17
X11.635Y-2.27
X11.64Y-3.15
X11.64Y-1.865
X11.64Y-2.745
X11.705Y-2.505
X11.775Y-2.585
T3
X11.43Y-2.705
X11.43Y-2.805
X11.43Y-2.905
X11.53Y-2.705
X11.53Y-2.805
X11.53Y-2.905
T4
X7.3875Y-4.4975
X7.4875Y-4.4975
X3.1062Y-4.4975
X3.2062Y-4.4975
X8.2Y-4.4975
X8.3Y-4.4975
X3.9187Y-4.4975
X4.0187Y-4.4975
X4.7313Y-4.4975
X4.8312Y-4.4975
X9.0125Y-4.4975
X9.1125Y-4.4975
X1.2625Y-4.4975
X1.3625Y-4.4975
X5.5438Y-4.4975
X5.6437Y-4.4975
X6.575Y-4.4975
X6.675Y-4.4975
X2.075Y-4.4975
X2.175Y-4.4975
T5
X1.3125Y-4.0802
X1.5094Y-4.1629
X5.5938Y-4.0802
X5.7906Y-4.1629
X6.625Y-4.0802
X6.8219Y-4.1629
X2.125Y-4.0802
X2.3219Y-4.1629
X7.4375Y-4.0802
X7.6344Y-4.1629
X3.1562Y-4.0802
X3.3531Y-4.1629
X8.25Y-4.0802
X8.4469Y-4.1629
X3.9688Y-4.0802
X4.1656Y-4.1629
X4.9781Y-4.1629
X9.0625Y-4.0802
X9.2594Y-4.1629
X4.7812Y-4.0802
T6
X10.725Y-4.2125
X10.7766Y-4.155
X10.9734Y-4.1353
X10.975Y-4.1125
X9.1312Y-3.4625
X9.1828Y-3.405
X9.3797Y-3.3853
X9.3812Y-3.3625
X9.6Y-2.7125
X9.6516Y-2.655
X9.8484Y-2.6353
X9.85Y-2.6125
X6.6937Y-3.4625
X6.7453Y-3.405
X11.0062Y-1.9625
X8.475Y-1.9625
X8.5266Y-1.905
X8.7234Y-1.8853
X8.725Y-1.8625
X6.7875Y-1.2125
X6.8391Y-1.155
X7.0359Y-1.1353
X7.0375Y-1.1125
X3.0375Y-1.2125
X3.0891Y-1.155
X3.2859Y-1.1353
X3.2875Y-1.1125
X9.7875Y-1.2125
X9.8391Y-1.155
X10.0359Y-1.1353
X10.0375Y-1.1125
X3.6Y-2.7125
X3.6516Y-2.655
X3.8484Y-2.6353
X3.85Y-2.6125
X1.4437Y-1.9625
X1.4953Y-1.905
X1.6922Y-1.8853
X1.6937Y-1.8625
X11.475Y-3.4625
X11.5266Y-3.405
X11.7234Y-3.3853
X11.725Y-3.3625
X5.2875Y-1.2125
X8.1Y-2.7125
X8.1516Y-2.655
X8.3484Y-2.6353
X8.35Y-2.6125
X5.5359Y-1.1353
X5.5375Y-1.1125
X1.6312Y-2.7125
X1.6828Y-2.655
X1.8797Y-2.6353
X1.8812Y-2.6125
X10.5375Y-1.2125
X10.5891Y-1.155
X10.7875Y-1.1125
X5.475Y-1.9625
X5.5266Y-1.905
X5.725Y-1.8625
X6.9422Y-3.3853
X6.9437Y-3.3625
X5.7234Y-1.8853
X5.3391Y-1.155
X10.7859Y-1.1353
X3.975Y-1.9625
X4.0266Y-1.905
X1.4016Y-1.155
X1.35Y-1.2125
X1.5984Y-1.1353
X1.6Y-1.1125
X11.7234Y-4.1353
X2.6625Y-3.4625
X2.7141Y-3.405
X2.9109Y-3.3853
X2.9125Y-3.3625
X9.0375Y-1.2125
X9.0891Y-1.155
X9.2859Y-1.1353
X9.2875Y-1.1125
X10.8187Y-2.7125
X10.8703Y-2.655
X11.0672Y-2.6353
X11.0687Y-2.6125
X11.475Y-4.2125
X11.5266Y-4.155
X11.725Y-4.1125
X9.225Y-1.9625
X9.2766Y-1.905
X9.4734Y-1.8853
X9.475Y-1.8625
X3.7875Y-1.2125
X3.8391Y-1.155
X10.225Y-3.3625
X10.2234Y-3.3853
X4.0359Y-1.1353
X9.975Y-3.4625
X10.0266Y-3.405
X4.2234Y-1.8853
X4.0375Y-1.1125
X4.225Y-1.8625
X7.5375Y-1.2125
X7.5891Y-1.155
X7.7859Y-1.1353
X7.7875Y-1.1125
X11.0578Y-1.905
X2.7234Y-1.8853
X11.2547Y-1.8853
X11.2562Y-1.8625
X6.3187Y-3.4625
X6.3703Y-3.405
X6.5672Y-3.3853
X6.5687Y-3.3625
X6.225Y-1.9625
X6.2766Y-1.905
X6.4734Y-1.8853
X6.475Y-1.8625
X6.6Y-2.7125
X6.6516Y-2.655
X6.8484Y-2.6353
X6.85Y-2.6125
X8.1937Y-3.4625
X8.2453Y-3.405
X8.4422Y-3.3853
X8.4437Y-3.3625
X2.475Y-1.9625
X2.5266Y-1.905
X2.725Y-1.8625
X1.1625Y-3.4625
X1.2141Y-3.405
X1.4109Y-3.3853
X1.4125Y-3.3625
X8.85Y-2.7125
X8.9016Y-2.655
X9.0984Y-2.6353
X9.1Y-2.6125
X6.0984Y-2.6353
X4.4016Y-2.655
X7.725Y-1.9625
X7.7766Y-1.905
X7.9734Y-1.8853
X7.975Y-1.8625
X4.35Y-2.7125
X4.6Y-2.6125
X2.2875Y-1.2125
X2.3391Y-1.155
X2.5359Y-1.1353
X2.5375Y-1.1125
X4.5984Y-2.6353
X9.975Y-4.2125
X10.0266Y-4.155
X10.2234Y-4.1353
X10.225Y-4.1125
X5.85Y-2.7125
X5.9016Y-2.655
X6.1Y-2.6125
X2.85Y-2.7125
X2.9016Y-2.655
X3.0984Y-2.6353
X6.0375Y-1.2125
X6.0891Y-1.155
X6.2859Y-1.1353
X6.2875Y-1.1125
X4.8187Y-3.4625
X4.8703Y-3.405
X5.0672Y-3.3853
X5.0687Y-3.3625
X11.2875Y-1.2125
X11.3391Y-1.155
X11.5359Y-1.1353
X11.5375Y-1.1125
X7.6Y-2.6125
X3.1Y-2.6125
X9.975Y-1.9625
X10.2234Y-1.8853
X6.975Y-1.9625
X7.0266Y-1.905
X7.225Y-1.8625
X10.7766Y-3.405
X10.9734Y-3.3853
X10.975Y-3.3625
X3.5063Y-3.4625
X3.5578Y-3.405
X3.7563Y-3.3625
X7.35Y-2.7125
X7.4016Y-2.655
X10.225Y-1.8625
X3.7547Y-3.3853
X4.7766Y-1.905
X4.5375Y-1.2125
X4.5891Y-1.155
X4.7859Y-1.1353
X4.7875Y-1.1125
X4.725Y-1.9625
X7.2234Y-1.8853
X4.9734Y-1.8853
X4.975Y-1.8625
X7.5984Y-2.6353
X10.0266Y-1.905
X10.725Y-3.4625
X3.225Y-1.9625
X2.1625Y-3.3625
X1.9125Y-3.4625
X1.9641Y-3.405
X2.1609Y-3.3853
X3.2766Y-1.905
X3.4734Y-1.8853
X3.475Y-1.8625
X8.2875Y-1.2125
X8.3391Y-1.155
X8.5359Y-1.1353
X8.5375Y-1.1125
X5.1Y-2.7125
X5.1516Y-2.655
X5.3484Y-2.6353
X5.35Y-2.6125
T2
G00X11.7547Y-1.8949
M15
G01X11.7114Y-1.8949
M16
G05
G00X11.7547Y-2.2351
M15
G01X11.7114Y-2.2351
M16
G05
G00X11.9094Y-1.8949
M15
G01X11.8858Y-1.8949
M16
G05
G00X11.9094Y-2.2351
M15
G01X11.8858Y-2.2351
M16
G05
T0
M30
