G04 #@! TF.GenerationSoftware,KiCad,Pcbnew,(5.1.4-0-10_14)*
G04 #@! TF.CreationDate,2020-01-19T01:37:33+09:00*
G04 #@! TF.ProjectId,dombrick60d,646f6d62-7269-4636-9b36-30642e6b6963,rev?*
G04 #@! TF.SameCoordinates,Original*
G04 #@! TF.FileFunction,Copper,L1,Top*
G04 #@! TF.FilePolarity,Positive*
%FSLAX46Y46*%
G04 Gerber Fmt 4.6, Leading zero omitted, Abs format (unit mm)*
G04 Created by KiCad (PCBNEW (5.1.4-0-10_14)) date 2020-01-19 01:37:33*
%MOMM*%
%LPD*%
G04 APERTURE LIST*
%ADD10C,2.250000*%
%ADD11C,2.250000*%
%ADD12O,2.100000X1.000000*%
%ADD13O,1.600000X1.000000*%
%ADD14R,1.100000X1.800000*%
%ADD15R,1.905000X1.905000*%
%ADD16C,1.905000*%
%ADD17C,2.000000*%
%ADD18R,1.700000X1.700000*%
%ADD19C,1.700000*%
%ADD20C,0.800000*%
%ADD21C,0.381000*%
%ADD22C,0.254000*%
G04 APERTURE END LIST*
D10*
X268962500Y-29337500D03*
X268307501Y-30067500D03*
D11*
X267652500Y-30797500D02*
X268962502Y-29337500D01*
D10*
X274002500Y-28257500D03*
X273982500Y-28547500D03*
D11*
X273962500Y-28837500D02*
X274002500Y-28257500D01*
D10*
X288012500Y-29337500D03*
X287357501Y-30067500D03*
D11*
X286702500Y-30797500D02*
X288012502Y-29337500D01*
D10*
X293052500Y-28257500D03*
X293032500Y-28547500D03*
D11*
X293012500Y-28837500D02*
X293052500Y-28257500D01*
D10*
X280868750Y-48387500D03*
X280213751Y-49117500D03*
D11*
X279558750Y-49847500D02*
X280868752Y-48387500D01*
D10*
X285908750Y-47307500D03*
X285888750Y-47597500D03*
D11*
X285868750Y-47887500D02*
X285908750Y-47307500D01*
D10*
X292775000Y-86487500D03*
X292120001Y-87217500D03*
D11*
X291465000Y-87947500D02*
X292775002Y-86487500D01*
D10*
X297815000Y-85407500D03*
X297795000Y-85697500D03*
D11*
X297775000Y-85987500D02*
X297815000Y-85407500D01*
D10*
X276106250Y-67437500D03*
X275451251Y-68167500D03*
D11*
X274796250Y-68897500D02*
X276106252Y-67437500D01*
D10*
X281146250Y-66357500D03*
X281126250Y-66647500D03*
D11*
X281106250Y-66937500D02*
X281146250Y-66357500D01*
D10*
X249912500Y-29337500D03*
X249257501Y-30067500D03*
D11*
X248602500Y-30797500D02*
X249912502Y-29337500D01*
D10*
X254952500Y-28257500D03*
X254932500Y-28547500D03*
D11*
X254912500Y-28837500D02*
X254952500Y-28257500D01*
D10*
X159425000Y-48387500D03*
X158770001Y-49117500D03*
D11*
X158115000Y-49847500D02*
X159425002Y-48387500D01*
D10*
X164465000Y-47307500D03*
X164445000Y-47597500D03*
D11*
X164425000Y-47887500D02*
X164465000Y-47307500D01*
D10*
X178475000Y-48387500D03*
X177820001Y-49117500D03*
D11*
X177165000Y-49847500D02*
X178475002Y-48387500D01*
D10*
X183515000Y-47307500D03*
X183495000Y-47597500D03*
D11*
X183475000Y-47887500D02*
X183515000Y-47307500D01*
D12*
X298020000Y-48131000D03*
X298020000Y-56771000D03*
D13*
X302200000Y-48131000D03*
X302200000Y-56771000D03*
D14*
X298759000Y-68020000D03*
X302459000Y-74220000D03*
X302459000Y-68020000D03*
X298759000Y-74220000D03*
D10*
X161806250Y-86487500D03*
X161151251Y-87217500D03*
D11*
X160496250Y-87947500D02*
X161806252Y-86487500D01*
D10*
X166846250Y-85407500D03*
X166826250Y-85697500D03*
D11*
X166806250Y-85987500D02*
X166846250Y-85407500D01*
D10*
X292775000Y-105537500D03*
X292120001Y-106267500D03*
D11*
X291465000Y-106997500D02*
X292775002Y-105537500D01*
D10*
X297815000Y-104457500D03*
X297795000Y-104747500D03*
D11*
X297775000Y-105037500D02*
X297815000Y-104457500D01*
D10*
X273725000Y-105537500D03*
X273070001Y-106267500D03*
D11*
X272415000Y-106997500D02*
X273725002Y-105537500D01*
D10*
X278765000Y-104457500D03*
X278745000Y-104747500D03*
D11*
X278725000Y-105037500D02*
X278765000Y-104457500D01*
D10*
X254675000Y-105537500D03*
X254020001Y-106267500D03*
D11*
X253365000Y-106997500D02*
X254675002Y-105537500D01*
D10*
X259715000Y-104457500D03*
X259695000Y-104747500D03*
D11*
X259675000Y-105037500D02*
X259715000Y-104457500D01*
D15*
X231457500Y-114237500D03*
D16*
X228917500Y-114237500D03*
D17*
X235187500Y-105737500D03*
X230187500Y-103637500D03*
D15*
X210820000Y-114237500D03*
D16*
X208280000Y-114237500D03*
D17*
X214550000Y-105737500D03*
X209550000Y-103637500D03*
D15*
X190182500Y-114237500D03*
D16*
X187642500Y-114237500D03*
D17*
X193912500Y-105737500D03*
X188912500Y-103637500D03*
D15*
X169545000Y-114237500D03*
D16*
X167005000Y-114237500D03*
D17*
X173275000Y-105737500D03*
X168275000Y-103637500D03*
D15*
X143351250Y-114237500D03*
D16*
X140811250Y-114237500D03*
D17*
X147081250Y-105737500D03*
X142081250Y-103637500D03*
D15*
X122713750Y-114237500D03*
D16*
X120173750Y-114237500D03*
D17*
X126443750Y-105737500D03*
X121443750Y-103637500D03*
D15*
X102076250Y-114237500D03*
D16*
X99536250Y-114237500D03*
D17*
X105806250Y-105737500D03*
X100806250Y-103637500D03*
D15*
X81438750Y-114237500D03*
D16*
X78898750Y-114237500D03*
D17*
X85168750Y-105737500D03*
X80168750Y-103637500D03*
D15*
X55245000Y-114237500D03*
D16*
X52705000Y-114237500D03*
D17*
X58975000Y-105737500D03*
X53975000Y-103637500D03*
D15*
X34607500Y-114237500D03*
D16*
X32067500Y-114237500D03*
D17*
X38337500Y-105737500D03*
X33337500Y-103637500D03*
D10*
X273725000Y-86487500D03*
X273070001Y-87217500D03*
D11*
X272415000Y-87947500D02*
X273725002Y-86487500D01*
D10*
X278765000Y-85407500D03*
X278745000Y-85697500D03*
D11*
X278725000Y-85987500D02*
X278765000Y-85407500D01*
D10*
X254675000Y-86487500D03*
X254020001Y-87217500D03*
D11*
X253365000Y-87947500D02*
X254675002Y-86487500D01*
D10*
X259715000Y-85407500D03*
X259695000Y-85697500D03*
D11*
X259675000Y-85987500D02*
X259715000Y-85407500D01*
D10*
X233243750Y-86487500D03*
X232588751Y-87217500D03*
D11*
X231933750Y-87947500D02*
X233243752Y-86487500D01*
D10*
X238283750Y-85407500D03*
X238263750Y-85697500D03*
D11*
X238243750Y-85987500D02*
X238283750Y-85407500D01*
D10*
X209431250Y-86487500D03*
X208776251Y-87217500D03*
D11*
X208121250Y-87947500D02*
X209431252Y-86487500D01*
D10*
X214471250Y-85407500D03*
X214451250Y-85697500D03*
D11*
X214431250Y-85987500D02*
X214471250Y-85407500D01*
D10*
X171331250Y-86487500D03*
X170676251Y-87217500D03*
D11*
X170021250Y-87947500D02*
X171331252Y-86487500D01*
D10*
X176371250Y-85407500D03*
X176351250Y-85697500D03*
D11*
X176331250Y-85987500D02*
X176371250Y-85407500D01*
D10*
X123706250Y-86487500D03*
X123051251Y-87217500D03*
D11*
X122396250Y-87947500D02*
X123706252Y-86487500D01*
D10*
X128746250Y-85407500D03*
X128726250Y-85697500D03*
D11*
X128706250Y-85987500D02*
X128746250Y-85407500D01*
D10*
X90368750Y-86487500D03*
X89713751Y-87217500D03*
D11*
X89058750Y-87947500D02*
X90368752Y-86487500D01*
D10*
X95408750Y-85407500D03*
X95388750Y-85697500D03*
D11*
X95368750Y-85987500D02*
X95408750Y-85407500D01*
D10*
X68937500Y-86487500D03*
X68282501Y-87217500D03*
D11*
X67627500Y-87947500D02*
X68937502Y-86487500D01*
D10*
X73977500Y-85407500D03*
X73957500Y-85697500D03*
D11*
X73937500Y-85987500D02*
X73977500Y-85407500D01*
D10*
X49887500Y-86487500D03*
X49232501Y-87217500D03*
D11*
X48577500Y-87947500D02*
X49887502Y-86487500D01*
D10*
X54927500Y-85407500D03*
X54907500Y-85697500D03*
D11*
X54887500Y-85987500D02*
X54927500Y-85407500D01*
D10*
X30837500Y-86487500D03*
X30182501Y-87217500D03*
D11*
X29527500Y-87947500D02*
X30837502Y-86487500D01*
D10*
X35877500Y-85407500D03*
X35857500Y-85697500D03*
D11*
X35837500Y-85987500D02*
X35877500Y-85407500D01*
D10*
X245150000Y-67437500D03*
X244495001Y-68167500D03*
D11*
X243840000Y-68897500D02*
X245150002Y-67437500D01*
D10*
X250190000Y-66357500D03*
X250170000Y-66647500D03*
D11*
X250150000Y-66937500D02*
X250190000Y-66357500D01*
D10*
X226100000Y-67437500D03*
X225445001Y-68167500D03*
D11*
X224790000Y-68897500D02*
X226100002Y-67437500D01*
D10*
X231140000Y-66357500D03*
X231120000Y-66647500D03*
D11*
X231100000Y-66937500D02*
X231140000Y-66357500D01*
D10*
X207050000Y-67437500D03*
X206395001Y-68167500D03*
D11*
X205740000Y-68897500D02*
X207050002Y-67437500D01*
D10*
X212090000Y-66357500D03*
X212070000Y-66647500D03*
D11*
X212050000Y-66937500D02*
X212090000Y-66357500D01*
D10*
X188000000Y-67437500D03*
X187345001Y-68167500D03*
D11*
X186690000Y-68897500D02*
X188000002Y-67437500D01*
D10*
X193040000Y-66357500D03*
X193020000Y-66647500D03*
D11*
X193000000Y-66937500D02*
X193040000Y-66357500D01*
D10*
X168950000Y-67437500D03*
X168295001Y-68167500D03*
D11*
X167640000Y-68897500D02*
X168950002Y-67437500D01*
D10*
X173990000Y-66357500D03*
X173970000Y-66647500D03*
D11*
X173950000Y-66937500D02*
X173990000Y-66357500D01*
D10*
X149900000Y-67437500D03*
X149245001Y-68167500D03*
D11*
X148590000Y-68897500D02*
X149900002Y-67437500D01*
D10*
X154940000Y-66357500D03*
X154920000Y-66647500D03*
D11*
X154900000Y-66937500D02*
X154940000Y-66357500D01*
D10*
X130850000Y-67437500D03*
X130195001Y-68167500D03*
D11*
X129540000Y-68897500D02*
X130850002Y-67437500D01*
D10*
X135890000Y-66357500D03*
X135870000Y-66647500D03*
D11*
X135850000Y-66937500D02*
X135890000Y-66357500D01*
D10*
X111800000Y-67437500D03*
X111145001Y-68167500D03*
D11*
X110490000Y-68897500D02*
X111800002Y-67437500D01*
D10*
X116840000Y-66357500D03*
X116820000Y-66647500D03*
D11*
X116800000Y-66937500D02*
X116840000Y-66357500D01*
D10*
X92750000Y-67437500D03*
X92095001Y-68167500D03*
D11*
X91440000Y-68897500D02*
X92750002Y-67437500D01*
D10*
X97790000Y-66357500D03*
X97770000Y-66647500D03*
D11*
X97750000Y-66937500D02*
X97790000Y-66357500D01*
D10*
X73700000Y-67437500D03*
X73045001Y-68167500D03*
D11*
X72390000Y-68897500D02*
X73700002Y-67437500D01*
D10*
X78740000Y-66357500D03*
X78720000Y-66647500D03*
D11*
X78700000Y-66937500D02*
X78740000Y-66357500D01*
D10*
X42743750Y-67437500D03*
X42088751Y-68167500D03*
D11*
X41433750Y-68897500D02*
X42743752Y-67437500D01*
D10*
X47783750Y-66357500D03*
X47763750Y-66647500D03*
D11*
X47743750Y-66937500D02*
X47783750Y-66357500D01*
D10*
X254675000Y-48387500D03*
X254020001Y-49117500D03*
D11*
X253365000Y-49847500D02*
X254675002Y-48387500D01*
D10*
X259715000Y-47307500D03*
X259695000Y-47597500D03*
D11*
X259675000Y-47887500D02*
X259715000Y-47307500D01*
D10*
X235625000Y-48387500D03*
X234970001Y-49117500D03*
D11*
X234315000Y-49847500D02*
X235625002Y-48387500D01*
D10*
X240665000Y-47307500D03*
X240645000Y-47597500D03*
D11*
X240625000Y-47887500D02*
X240665000Y-47307500D01*
D10*
X216575000Y-48387500D03*
X215920001Y-49117500D03*
D11*
X215265000Y-49847500D02*
X216575002Y-48387500D01*
D10*
X221615000Y-47307500D03*
X221595000Y-47597500D03*
D11*
X221575000Y-47887500D02*
X221615000Y-47307500D01*
D10*
X197525000Y-48387500D03*
X196870001Y-49117500D03*
D11*
X196215000Y-49847500D02*
X197525002Y-48387500D01*
D10*
X202565000Y-47307500D03*
X202545000Y-47597500D03*
D11*
X202525000Y-47887500D02*
X202565000Y-47307500D01*
D10*
X140375000Y-48387500D03*
X139720001Y-49117500D03*
D11*
X139065000Y-49847500D02*
X140375002Y-48387500D01*
D10*
X145415000Y-47307500D03*
X145395000Y-47597500D03*
D11*
X145375000Y-47887500D02*
X145415000Y-47307500D01*
D10*
X121325000Y-48387500D03*
X120670001Y-49117500D03*
D11*
X120015000Y-49847500D02*
X121325002Y-48387500D01*
D10*
X126365000Y-47307500D03*
X126345000Y-47597500D03*
D11*
X126325000Y-47887500D02*
X126365000Y-47307500D01*
D10*
X102275000Y-48387500D03*
X101620001Y-49117500D03*
D11*
X100965000Y-49847500D02*
X102275002Y-48387500D01*
D10*
X107315000Y-47307500D03*
X107295000Y-47597500D03*
D11*
X107275000Y-47887500D02*
X107315000Y-47307500D01*
D10*
X83225000Y-48387500D03*
X82570001Y-49117500D03*
D11*
X81915000Y-49847500D02*
X83225002Y-48387500D01*
D10*
X88265000Y-47307500D03*
X88245000Y-47597500D03*
D11*
X88225000Y-47887500D02*
X88265000Y-47307500D01*
D10*
X64175000Y-48387500D03*
X63520001Y-49117500D03*
D11*
X62865000Y-49847500D02*
X64175002Y-48387500D01*
D10*
X69215000Y-47307500D03*
X69195000Y-47597500D03*
D11*
X69175000Y-47887500D02*
X69215000Y-47307500D01*
D10*
X37981250Y-48387500D03*
X37326251Y-49117500D03*
D11*
X36671250Y-49847500D02*
X37981252Y-48387500D01*
D10*
X43021250Y-47307500D03*
X43001250Y-47597500D03*
D11*
X42981250Y-47887500D02*
X43021250Y-47307500D01*
D10*
X230862500Y-29337500D03*
X230207501Y-30067500D03*
D11*
X229552500Y-30797500D02*
X230862502Y-29337500D01*
D10*
X235902500Y-28257500D03*
X235882500Y-28547500D03*
D11*
X235862500Y-28837500D02*
X235902500Y-28257500D01*
D10*
X211812500Y-29337500D03*
X211157501Y-30067500D03*
D11*
X210502500Y-30797500D02*
X211812502Y-29337500D01*
D10*
X216852500Y-28257500D03*
X216832500Y-28547500D03*
D11*
X216812500Y-28837500D02*
X216852500Y-28257500D01*
D10*
X192762500Y-29337500D03*
X192107501Y-30067500D03*
D11*
X191452500Y-30797500D02*
X192762502Y-29337500D01*
D10*
X197802500Y-28257500D03*
X197782500Y-28547500D03*
D11*
X197762500Y-28837500D02*
X197802500Y-28257500D01*
D10*
X173712500Y-29337500D03*
X173057501Y-30067500D03*
D11*
X172402500Y-30797500D02*
X173712502Y-29337500D01*
D10*
X178752500Y-28257500D03*
X178732500Y-28547500D03*
D11*
X178712500Y-28837500D02*
X178752500Y-28257500D01*
D10*
X154662500Y-29337500D03*
X154007501Y-30067500D03*
D11*
X153352500Y-30797500D02*
X154662502Y-29337500D01*
D10*
X159702500Y-28257500D03*
X159682500Y-28547500D03*
D11*
X159662500Y-28837500D02*
X159702500Y-28257500D01*
D10*
X135612500Y-29337500D03*
X134957501Y-30067500D03*
D11*
X134302500Y-30797500D02*
X135612502Y-29337500D01*
D10*
X140652500Y-28257500D03*
X140632500Y-28547500D03*
D11*
X140612500Y-28837500D02*
X140652500Y-28257500D01*
D10*
X116562500Y-29337500D03*
X115907501Y-30067500D03*
D11*
X115252500Y-30797500D02*
X116562502Y-29337500D01*
D10*
X121602500Y-28257500D03*
X121582500Y-28547500D03*
D11*
X121562500Y-28837500D02*
X121602500Y-28257500D01*
D10*
X97512500Y-29337500D03*
X96857501Y-30067500D03*
D11*
X96202500Y-30797500D02*
X97512502Y-29337500D01*
D10*
X102552500Y-28257500D03*
X102532500Y-28547500D03*
D11*
X102512500Y-28837500D02*
X102552500Y-28257500D01*
D10*
X78462500Y-29337500D03*
X77807501Y-30067500D03*
D11*
X77152500Y-30797500D02*
X78462502Y-29337500D01*
D10*
X83502500Y-28257500D03*
X83482500Y-28547500D03*
D11*
X83462500Y-28837500D02*
X83502500Y-28257500D01*
D10*
X59412500Y-29337500D03*
X58757501Y-30067500D03*
D11*
X58102500Y-30797500D02*
X59412502Y-29337500D01*
D10*
X64452500Y-28257500D03*
X64432500Y-28547500D03*
D11*
X64412500Y-28837500D02*
X64452500Y-28257500D01*
D10*
X35600000Y-29337500D03*
X34945001Y-30067500D03*
D11*
X34290000Y-30797500D02*
X35600002Y-29337500D01*
D10*
X40640000Y-28257500D03*
X40620000Y-28547500D03*
D11*
X40600000Y-28837500D02*
X40640000Y-28257500D01*
D18*
X290322000Y-73787000D03*
D19*
X292862000Y-73787000D03*
X290322000Y-71247000D03*
X292862000Y-71247000D03*
X290322000Y-68707000D03*
X292862000Y-68707000D03*
D20*
X295529000Y-57658000D03*
X291973000Y-55118000D03*
X271399000Y-47117000D03*
X297307000Y-63627000D03*
X274398500Y-75994500D03*
X294259000Y-75819000D03*
X295656000Y-47371000D03*
X278257000Y-47117000D03*
X281178000Y-59817000D03*
X279527000Y-60579000D03*
X293243000Y-65786000D03*
X276098000Y-52197000D03*
X279526996Y-56388000D03*
X284988000Y-40259000D03*
X259651500Y-67246500D03*
X282194000Y-80010000D03*
X268097000Y-108353000D03*
X277114000Y-64897000D03*
X269240000Y-88011000D03*
X280797000Y-74803000D03*
X292354000Y-50419000D03*
X284099000Y-49276000D03*
X295275000Y-55118000D03*
X294760933Y-51441067D03*
X295275000Y-49784000D03*
X299085000Y-65659000D03*
X265938000Y-55626000D03*
X189230000Y-78105000D03*
X37211000Y-55753000D03*
X63881000Y-57658000D03*
X82677000Y-58420000D03*
X101727000Y-58547000D03*
X120777000Y-59055000D03*
X139573000Y-59690000D03*
X263277000Y-61728000D03*
X162687000Y-77216000D03*
X259715000Y-69342004D03*
X295655992Y-80010000D03*
X295656000Y-69723000D03*
X168402000Y-77216000D03*
X275336000Y-41402000D03*
X273812016Y-78994000D03*
X267462000Y-50419000D03*
X286512000Y-76708000D03*
X286893000Y-79756002D03*
X276606000Y-41402000D03*
X290576006Y-45847000D03*
X288671000Y-44450000D03*
X270637000Y-72819500D03*
X267081000Y-68961000D03*
D21*
X293624000Y-54737000D02*
X292354000Y-54737000D01*
X292354000Y-54737000D02*
X291973000Y-55118000D01*
X298759000Y-72939000D02*
X298759000Y-74220000D01*
X297307000Y-71487000D02*
X298759000Y-72939000D01*
X297307000Y-63627000D02*
X297307000Y-71487000D01*
X296291000Y-75819000D02*
X294259000Y-75819000D01*
X297890000Y-74220000D02*
X296291000Y-75819000D01*
X298759000Y-74220000D02*
X297890000Y-74220000D01*
X293624000Y-55753000D02*
X293624000Y-54737000D01*
X295529000Y-57658000D02*
X293624000Y-55753000D01*
X293624000Y-50165000D02*
X293624000Y-54737000D01*
X293624000Y-49403000D02*
X293624000Y-50165000D01*
X295656000Y-47371000D02*
X293624000Y-49403000D01*
X271399000Y-47117000D02*
X277495000Y-47117000D01*
X278257000Y-47117000D02*
X277495000Y-47117000D01*
X274964185Y-75994500D02*
X274398500Y-75994500D01*
X287528000Y-75184000D02*
X286004000Y-75184000D01*
X285193500Y-75994500D02*
X274964185Y-75994500D01*
X286004000Y-75184000D02*
X285193500Y-75994500D01*
X288925000Y-73787000D02*
X287528000Y-75184000D01*
X290322000Y-73787000D02*
X288925000Y-73787000D01*
X290322000Y-68707000D02*
X293243000Y-65786000D01*
X286766000Y-68707000D02*
X290322000Y-68707000D01*
X281178000Y-63119000D02*
X286766000Y-68707000D01*
X281178000Y-59817000D02*
X281178000Y-63119000D01*
X281178000Y-58039004D02*
X279926995Y-56787999D01*
X281178000Y-59817000D02*
X281178000Y-58039004D01*
X279926995Y-56787999D02*
X279526996Y-56388000D01*
X279273000Y-60579000D02*
X279527000Y-60579000D01*
X278257000Y-54991000D02*
X278257000Y-59563000D01*
X278257000Y-59563000D02*
X279273000Y-60579000D01*
X276098000Y-52832000D02*
X278257000Y-54991000D01*
X276098000Y-52197000D02*
X276098000Y-52832000D01*
D22*
X285868750Y-47887500D02*
X285868750Y-41012750D01*
X285868750Y-41012750D02*
X285496000Y-40640000D01*
X285115000Y-40259000D02*
X284988000Y-40259000D01*
X285496000Y-40640000D02*
X285115000Y-40259000D01*
X289687000Y-71247000D02*
X290322000Y-71247000D01*
X281628315Y-80010000D02*
X282194000Y-80010000D01*
X272415000Y-80010000D02*
X281628315Y-80010000D01*
X259651500Y-67246500D02*
X272415000Y-80010000D01*
X268097000Y-108353000D02*
X269240000Y-107210000D01*
X269240000Y-107210000D02*
X269240000Y-88576685D01*
X269240000Y-88576685D02*
X269240000Y-88011000D01*
X278765000Y-66548000D02*
X278765000Y-67691000D01*
X281686000Y-73914000D02*
X280797000Y-74803000D01*
X281686000Y-70612000D02*
X281686000Y-73914000D01*
X278765000Y-67691000D02*
X281686000Y-70612000D01*
X277114000Y-64897000D02*
X278765000Y-66548000D01*
D21*
X286004000Y-49911000D02*
X286512000Y-50419000D01*
X286512000Y-50419000D02*
X292354000Y-50419000D01*
X284734000Y-49911000D02*
X286004000Y-49911000D01*
X284734000Y-49911000D02*
X284099000Y-49276000D01*
X294760933Y-54603933D02*
X295275000Y-55118000D01*
X294760933Y-51441067D02*
X294760933Y-54603933D01*
X294760933Y-50298067D02*
X294760933Y-51441067D01*
X295275000Y-49784000D02*
X294760933Y-50298067D01*
D22*
X280416000Y-77978000D02*
X280670000Y-77978000D01*
X301244000Y-65659000D02*
X299085000Y-65659000D01*
X302459000Y-66874000D02*
X301244000Y-65659000D01*
X302459000Y-68020000D02*
X302459000Y-66874000D01*
X262255000Y-59309000D02*
X265538001Y-56025999D01*
X262255000Y-67437000D02*
X262255000Y-59309000D01*
X272796000Y-77978000D02*
X262255000Y-67437000D01*
X280670000Y-77978000D02*
X272796000Y-77978000D01*
X265538001Y-56025999D02*
X265938000Y-55626000D01*
X211328000Y-45910500D02*
X215265000Y-49847500D01*
X211328000Y-32385000D02*
X211328000Y-45910500D01*
X210502500Y-31559500D02*
X211328000Y-32385000D01*
X210502500Y-30797500D02*
X210502500Y-31559500D01*
X205740000Y-68747500D02*
X205740000Y-68897500D01*
X216027000Y-58460500D02*
X205740000Y-68747500D01*
X216027000Y-51435000D02*
X216027000Y-58460500D01*
X215265000Y-50673000D02*
X216027000Y-51435000D01*
X215265000Y-49847500D02*
X215265000Y-50673000D01*
X205740000Y-68897500D02*
X205740000Y-69469000D01*
X212979000Y-79756000D02*
X223742250Y-79756000D01*
X206629000Y-70358000D02*
X206629000Y-73406000D01*
X205740000Y-69469000D02*
X206629000Y-70358000D01*
X223742250Y-79756000D02*
X231933750Y-87947500D01*
X206629000Y-73406000D02*
X212979000Y-79756000D01*
X231933750Y-87947500D02*
X231933750Y-88550750D01*
X231933750Y-88550750D02*
X232537000Y-89154000D01*
X232537000Y-101288000D02*
X230187500Y-103637500D01*
X232537000Y-89154000D02*
X232537000Y-101288000D01*
X191452500Y-30797500D02*
X191452500Y-31051500D01*
X191452500Y-31051500D02*
X192405000Y-32004000D01*
X192405000Y-32004000D02*
X192405000Y-45212000D01*
X196215000Y-49022000D02*
X196215000Y-49847500D01*
X192405000Y-45212000D02*
X196215000Y-49022000D01*
X186690000Y-68897500D02*
X186690000Y-69469000D01*
X186690000Y-69469000D02*
X187452000Y-70231000D01*
X187452000Y-70231000D02*
X187452000Y-76327000D01*
X199072500Y-87947500D02*
X208121250Y-87947500D01*
X208121250Y-87947500D02*
X208121250Y-88487250D01*
X208121250Y-87947500D02*
X208121250Y-88614250D01*
X208121250Y-88614250D02*
X208788000Y-89281000D01*
X208788000Y-89281000D02*
X208788000Y-97536000D01*
X209550000Y-98298000D02*
X209550000Y-103637500D01*
X208788000Y-97536000D02*
X209550000Y-98298000D01*
X187452000Y-76327000D02*
X189230000Y-78105000D01*
X189230000Y-78105000D02*
X199072500Y-87947500D01*
X196977000Y-58460500D02*
X188000000Y-67437500D01*
X196215000Y-50292000D02*
X196977000Y-51054000D01*
X196977000Y-51054000D02*
X196977000Y-58460500D01*
X196215000Y-49847500D02*
X196215000Y-50292000D01*
X230378000Y-45910500D02*
X234315000Y-49847500D01*
X230378000Y-32004000D02*
X230378000Y-45910500D01*
X229552500Y-31178500D02*
X230378000Y-32004000D01*
X229552500Y-30797500D02*
X229552500Y-31178500D01*
X235077000Y-58460500D02*
X224790000Y-68747500D01*
X224790000Y-68747500D02*
X224790000Y-68897500D01*
X235077000Y-51181000D02*
X235077000Y-58460500D01*
X234315000Y-50419000D02*
X235077000Y-51181000D01*
X234315000Y-49847500D02*
X234315000Y-50419000D01*
X239776000Y-67056000D02*
X239776000Y-74358500D01*
X235077000Y-62357000D02*
X239776000Y-67056000D01*
X239776000Y-74358500D02*
X253365000Y-87947500D01*
X235077000Y-58460500D02*
X235077000Y-62357000D01*
X253365000Y-87947500D02*
X253365000Y-88646000D01*
X254254000Y-106108500D02*
X253365000Y-106997500D01*
X254254000Y-89408000D02*
X254254000Y-106108500D01*
X253365000Y-88519000D02*
X254254000Y-89408000D01*
X253365000Y-87947500D02*
X253365000Y-88519000D01*
X34290000Y-30797500D02*
X34290000Y-31496000D01*
X34290000Y-31496000D02*
X35052000Y-32258000D01*
X35052000Y-48228250D02*
X36671250Y-49847500D01*
X35052000Y-32258000D02*
X35052000Y-48228250D01*
X36671250Y-49847500D02*
X36671250Y-50260250D01*
X36671250Y-50260250D02*
X37211000Y-50800000D01*
X37211000Y-64674750D02*
X41433750Y-68897500D01*
X41433750Y-68897500D02*
X38163500Y-68897500D01*
X29527500Y-77533500D02*
X29527500Y-87947500D01*
X38163500Y-68897500D02*
X29527500Y-77533500D01*
X29527500Y-87947500D02*
X29527500Y-88455500D01*
X29527500Y-88455500D02*
X30226000Y-89154000D01*
X30226000Y-100526000D02*
X33337500Y-103637500D01*
X30226000Y-89154000D02*
X30226000Y-100526000D01*
X37211000Y-50800000D02*
X37211000Y-55753000D01*
X37211000Y-55753000D02*
X37211000Y-64674750D01*
X58102500Y-30797500D02*
X58102500Y-30924500D01*
X58102500Y-30924500D02*
X58928000Y-31750000D01*
X58928000Y-45910500D02*
X62865000Y-49847500D01*
X58928000Y-31750000D02*
X58928000Y-45910500D01*
X63881000Y-60388500D02*
X72390000Y-68897500D01*
X49887500Y-81811500D02*
X49887500Y-86637500D01*
X62801500Y-68897500D02*
X49887500Y-81811500D01*
X49887500Y-86637500D02*
X48577500Y-87947500D01*
X72390000Y-68897500D02*
X62801500Y-68897500D01*
X48577500Y-87947500D02*
X48577500Y-88709500D01*
X48577500Y-88709500D02*
X49276000Y-89408000D01*
X49276000Y-98938500D02*
X53975000Y-103637500D01*
X49276000Y-89408000D02*
X49276000Y-98938500D01*
X63881000Y-57658000D02*
X63881000Y-60388500D01*
X63500000Y-57277000D02*
X63881000Y-57658000D01*
X63500000Y-50546000D02*
X63500000Y-57277000D01*
X62865000Y-49911000D02*
X63500000Y-50546000D01*
X62865000Y-49847500D02*
X62865000Y-49911000D01*
X77152500Y-30797500D02*
X77152500Y-31305500D01*
X77152500Y-31305500D02*
X78105000Y-32258000D01*
X78105000Y-46037500D02*
X81915000Y-49847500D01*
X78105000Y-32258000D02*
X78105000Y-46037500D01*
X81915000Y-49847500D02*
X81915000Y-50546000D01*
X81915000Y-50546000D02*
X82677000Y-51308000D01*
X82677000Y-60134500D02*
X91440000Y-68897500D01*
X72367000Y-83058000D02*
X68937500Y-86487500D01*
X83312000Y-83058000D02*
X72367000Y-83058000D01*
X87122000Y-79248000D02*
X83312000Y-83058000D01*
X87122000Y-70866000D02*
X87122000Y-79248000D01*
X89090500Y-68897500D02*
X87122000Y-70866000D01*
X91440000Y-68897500D02*
X89090500Y-68897500D01*
X67627500Y-87947500D02*
X67627500Y-88582500D01*
X67627500Y-88582500D02*
X68199000Y-89154000D01*
X68199000Y-91667750D02*
X80168750Y-103637500D01*
X68199000Y-89154000D02*
X68199000Y-91667750D01*
X82677000Y-51308000D02*
X82677000Y-58420000D01*
X82677000Y-58420000D02*
X82677000Y-60134500D01*
X97028000Y-32639000D02*
X97028000Y-43140500D01*
X96202500Y-31813500D02*
X97028000Y-32639000D01*
X97028000Y-43140500D02*
X102275000Y-48387500D01*
X96202500Y-30797500D02*
X96202500Y-31813500D01*
X100965000Y-49847500D02*
X100965000Y-50800000D01*
X100965000Y-50800000D02*
X101727000Y-51562000D01*
X101727000Y-60134500D02*
X110490000Y-68897500D01*
X93925250Y-82931000D02*
X89058750Y-87797500D01*
X99695000Y-82931000D02*
X93925250Y-82931000D01*
X89058750Y-87797500D02*
X89058750Y-87947500D01*
X106553000Y-76073000D02*
X99695000Y-82931000D01*
X108140500Y-68897500D02*
X106553000Y-70485000D01*
X106553000Y-70485000D02*
X106553000Y-76073000D01*
X110490000Y-68897500D02*
X108140500Y-68897500D01*
X89058750Y-87947500D02*
X89058750Y-88804750D01*
X89058750Y-88804750D02*
X89916000Y-89662000D01*
X89916000Y-89662000D02*
X89916000Y-98298000D01*
X95255500Y-103637500D02*
X100806250Y-103637500D01*
X89916000Y-98298000D02*
X95255500Y-103637500D01*
X101727000Y-51562000D02*
X101727000Y-58547000D01*
X101727000Y-58547000D02*
X101727000Y-60134500D01*
X115252500Y-30797500D02*
X115252500Y-31813500D01*
X115252500Y-31813500D02*
X116078000Y-32639000D01*
X116078000Y-45910500D02*
X120015000Y-49847500D01*
X116078000Y-32639000D02*
X116078000Y-45910500D01*
X120015000Y-49847500D02*
X120015000Y-50165000D01*
X120015000Y-50165000D02*
X120777000Y-50927000D01*
X120777000Y-60134500D02*
X129540000Y-68897500D01*
X130048000Y-80145750D02*
X122396250Y-87797500D01*
X122396250Y-87797500D02*
X122396250Y-87947500D01*
X130048000Y-70104000D02*
X130048000Y-80145750D01*
X129540000Y-69596000D02*
X130048000Y-70104000D01*
X129540000Y-68897500D02*
X129540000Y-69596000D01*
X122396250Y-87947500D02*
X122396250Y-88741250D01*
X122396250Y-88741250D02*
X123190000Y-89535000D01*
X123190000Y-101891250D02*
X121443750Y-103637500D01*
X123190000Y-89535000D02*
X123190000Y-101891250D01*
X120777000Y-50927000D02*
X120777000Y-59055000D01*
X120777000Y-59055000D02*
X120777000Y-60134500D01*
X139065000Y-49847500D02*
X139065000Y-50927000D01*
X139065000Y-50927000D02*
X139573000Y-51435000D01*
X146240500Y-68897500D02*
X148590000Y-68897500D01*
X139573000Y-62230000D02*
X146240500Y-68897500D01*
X148590000Y-68897500D02*
X148590000Y-69469000D01*
X148590000Y-69469000D02*
X149352000Y-70231000D01*
X149352000Y-96366750D02*
X142081250Y-103637500D01*
X149352000Y-70231000D02*
X149352000Y-96366750D01*
X139573000Y-51435000D02*
X139573000Y-59690000D01*
X139573000Y-59690000D02*
X139573000Y-62230000D01*
X139065000Y-46863000D02*
X139065000Y-49847500D01*
X134874000Y-31750000D02*
X134874000Y-42672000D01*
X134302500Y-31178500D02*
X134874000Y-31750000D01*
X134874000Y-42672000D02*
X139065000Y-46863000D01*
X134302500Y-30797500D02*
X134302500Y-31178500D01*
X153415632Y-30797500D02*
X154178000Y-31559868D01*
X153352500Y-30797500D02*
X153415632Y-30797500D01*
X154178000Y-31559868D02*
X154178000Y-42545000D01*
X158115000Y-46482000D02*
X158115000Y-49847500D01*
X154178000Y-42545000D02*
X158115000Y-46482000D01*
X156591000Y-101854000D02*
X158374500Y-103637500D01*
X156591000Y-83693000D02*
X156591000Y-101854000D01*
X162687000Y-77597000D02*
X156591000Y-83693000D01*
X159044859Y-51348859D02*
X159044859Y-61300141D01*
X159044859Y-61300141D02*
X162687000Y-64942282D01*
X158374500Y-103637500D02*
X168275000Y-103637500D01*
X158115000Y-50419000D02*
X159044859Y-51348859D01*
X158115000Y-49847500D02*
X158115000Y-50419000D01*
X162687000Y-64942282D02*
X162687000Y-77216000D01*
X162687000Y-77216000D02*
X162687000Y-77597000D01*
X294767000Y-69723000D02*
X295656000Y-69723000D01*
X293243000Y-71247000D02*
X294767000Y-69723000D01*
X292862000Y-71247000D02*
X293243000Y-71247000D01*
X293115992Y-82550000D02*
X295255993Y-80409999D01*
X289179000Y-82550000D02*
X293115992Y-82550000D01*
X295255993Y-80409999D02*
X295655992Y-80010000D01*
X260477004Y-69342004D02*
X272288000Y-81153000D01*
X287782000Y-81153000D02*
X289179000Y-82550000D01*
X272288000Y-81153000D02*
X287782000Y-81153000D01*
X259715000Y-69342004D02*
X260477004Y-69342004D01*
X177165000Y-49847500D02*
X177165000Y-50419000D01*
X177165000Y-50419000D02*
X177800000Y-51054000D01*
X167640000Y-68747500D02*
X167640000Y-68897500D01*
X177800000Y-58587500D02*
X167640000Y-68747500D01*
X177800000Y-51054000D02*
X177800000Y-58587500D01*
X167640000Y-68897500D02*
X167640000Y-69977000D01*
X167640000Y-68897500D02*
X167640000Y-69088000D01*
X167640000Y-69088000D02*
X168402000Y-69850000D01*
X168402000Y-83558250D02*
X171331250Y-86487500D01*
X160496250Y-87797500D02*
X160496250Y-87947500D01*
X168402000Y-80645000D02*
X168402000Y-83558250D01*
X171069000Y-96139000D02*
X178567500Y-103637500D01*
X170021250Y-88106250D02*
X171069000Y-89154000D01*
X178567500Y-103637500D02*
X188912500Y-103637500D01*
X171069000Y-89154000D02*
X171069000Y-96139000D01*
X170021250Y-87947500D02*
X170021250Y-88106250D01*
X168402000Y-69850000D02*
X168402000Y-77216000D01*
X168402000Y-77216000D02*
X168402000Y-80645000D01*
X173101000Y-45783500D02*
X177165000Y-49847500D01*
X173101000Y-31877000D02*
X173101000Y-45783500D01*
X172402500Y-31178500D02*
X173101000Y-31877000D01*
X172402500Y-30797500D02*
X172402500Y-31178500D01*
X169703750Y-88265000D02*
X170021250Y-87947500D01*
X160940750Y-87503000D02*
X165481000Y-87503000D01*
X166243000Y-88265000D02*
X169703750Y-88265000D01*
X165481000Y-87503000D02*
X166243000Y-88265000D01*
X160496250Y-87947500D02*
X160940750Y-87503000D01*
X249301000Y-45783500D02*
X253365000Y-49847500D01*
X248602500Y-31178500D02*
X249301000Y-31877000D01*
X249301000Y-31877000D02*
X249301000Y-45783500D01*
X248602500Y-30797500D02*
X248602500Y-31178500D01*
X245150000Y-61809000D02*
X245150000Y-67437500D01*
X249047000Y-53086000D02*
X249047000Y-57912000D01*
X252285500Y-49847500D02*
X249047000Y-53086000D01*
X249047000Y-57912000D02*
X245150000Y-61809000D01*
X253365000Y-49847500D02*
X252285500Y-49847500D01*
X267906500Y-83439000D02*
X272415000Y-87947500D01*
X244348000Y-76835000D02*
X250952000Y-83439000D01*
X243840000Y-68897500D02*
X243840000Y-69596000D01*
X243840000Y-69596000D02*
X244348000Y-70104000D01*
X250952000Y-83439000D02*
X267906500Y-83439000D01*
X244348000Y-70104000D02*
X244348000Y-76835000D01*
X272415000Y-87947500D02*
X272415000Y-88773000D01*
X272415000Y-88773000D02*
X273177000Y-89535000D01*
X273177000Y-89535000D02*
X273177000Y-98298000D01*
X273725000Y-105687500D02*
X272415000Y-106997500D01*
X273725000Y-98846000D02*
X273725000Y-105687500D01*
X273177000Y-98298000D02*
X273725000Y-98846000D01*
X291465000Y-87947500D02*
X291465000Y-88392000D01*
X291465000Y-88392000D02*
X292354000Y-89281000D01*
X292354000Y-89281000D02*
X292354000Y-100965000D01*
X292775000Y-101386000D02*
X292775000Y-105687500D01*
X292354000Y-100965000D02*
X292775000Y-101386000D01*
X292775000Y-105687500D02*
X291465000Y-106997500D01*
X291465000Y-87947500D02*
X291147500Y-87947500D01*
X275336000Y-69437250D02*
X274796250Y-68897500D01*
X274796250Y-69379565D02*
X274796250Y-68897500D01*
X275336000Y-42545000D02*
X275336000Y-41402000D01*
X280868750Y-48077750D02*
X275336000Y-42545000D01*
X280868750Y-48537500D02*
X280868750Y-48077750D01*
X279558750Y-49847500D02*
X280868750Y-48537500D01*
X261366000Y-58801000D02*
X267462000Y-52705000D01*
X267462000Y-52705000D02*
X267462000Y-50419000D01*
X261366000Y-67691000D02*
X261366000Y-58801000D01*
X272669000Y-78994000D02*
X261366000Y-67691000D01*
X273812016Y-78994000D02*
X272669000Y-78994000D01*
X292481000Y-30099000D02*
X293052500Y-29527500D01*
X292862000Y-75311000D02*
X292862000Y-73787000D01*
X290957000Y-76200000D02*
X291973000Y-76200000D01*
X290449000Y-75692000D02*
X290957000Y-76200000D01*
X291973000Y-76200000D02*
X292862000Y-75311000D01*
X286893000Y-77978000D02*
X289179000Y-75692000D01*
X289179000Y-75692000D02*
X290449000Y-75692000D01*
X280670000Y-77978000D02*
X286893000Y-77978000D01*
X286004000Y-77216000D02*
X286512000Y-76708000D01*
X273050000Y-77216000D02*
X286004000Y-77216000D01*
X263277000Y-67443000D02*
X273050000Y-77216000D01*
X263277000Y-61728000D02*
X263277000Y-67443000D01*
X274447000Y-41402000D02*
X275336000Y-41402000D01*
X268351000Y-35306000D02*
X274447000Y-41402000D01*
X268351000Y-31496000D02*
X268351000Y-35306000D01*
X267652500Y-30797500D02*
X268351000Y-31496000D01*
X273812016Y-78994000D02*
X286130998Y-78994000D01*
X286130998Y-78994000D02*
X286493001Y-79356003D01*
X286493001Y-79356003D02*
X286893000Y-79756002D01*
X287274000Y-34417000D02*
X283908500Y-37782500D01*
X287274000Y-31369000D02*
X287274000Y-34417000D01*
X280225500Y-37782500D02*
X276606000Y-41402000D01*
X283908500Y-37782500D02*
X280225500Y-37782500D01*
X286702500Y-30797500D02*
X287274000Y-31369000D01*
X289179000Y-44958000D02*
X288671000Y-44450000D01*
X289941000Y-44958000D02*
X289179000Y-44958000D01*
X290576006Y-45593006D02*
X289941000Y-44958000D01*
X290576006Y-45847000D02*
X290576006Y-45593006D01*
X270637000Y-72819500D02*
X267081000Y-69263500D01*
X267081000Y-69263500D02*
X267081000Y-68961000D01*
M02*
