M48
; DRILL file {KiCad (5.1.4-0-10_14)} date 2020 January 19, Sunday 01:39:04
; FORMAT={-:-/ absolute / inch / decimal}
; #@! TF.CreationDate,2020-01-19T01:39:04+09:00
; #@! TF.GenerationSoftware,Kicad,Pcbnew,(5.1.4-0-10_14)
; #@! TF.FileFunction,NonPlated,1,2,NPTH
FMAT,2
INCH
T1C0.0256
T2C0.0472
T3C0.0689
T4C0.0748
T5C0.1200
T6C0.1339
T7C0.1570
%
G90
G05
T1
X11.7539Y-1.9512
X11.7539Y-2.1788
T2
X3.7632Y-4.4779
X4.5757Y-4.4779
X5.3882Y-4.4779
X6.4195Y-4.4779
X1.9195Y-4.4779
X7.232Y-4.4779
X1.107Y-4.4779
X2.9507Y-4.4779
X8.0445Y-4.4779
X8.857Y-4.4779
T3
X4.7687Y-3.5625
X5.1688Y-3.5625
X11.425Y-3.5625
X11.825Y-3.5625
X11.2375Y-1.3125
X11.6375Y-1.3125
X3.4562Y-3.5625
X10.4875Y-1.3125
X3.8562Y-3.5625
X5.8Y-2.8125
X6.2Y-2.8125
X2.8Y-2.8125
X9.95Y-2.8125
X3.2Y-2.8125
X9.925Y-2.0625
X10.325Y-2.0625
X4.4875Y-1.3125
X4.8875Y-1.3125
X6.925Y-2.0625
X7.325Y-2.0625
X1.8625Y-3.5625
X5.05Y-2.8125
X5.45Y-2.8125
X5.075Y-2.0625
X7.3Y-2.8125
X7.7Y-2.8125
X8.425Y-2.0625
X8.825Y-2.0625
X10.675Y-4.3125
X11.075Y-4.3125
X2.2625Y-3.5625
X4.675Y-2.0625
X10.675Y-3.5625
X11.075Y-3.5625
X9.7375Y-1.3125
X3.55Y-2.8125
X3.95Y-2.8125
X3.175Y-2.0625
X3.575Y-2.0625
X8.6375Y-1.3125
X9.0812Y-3.5625
X9.4812Y-3.5625
X8.2375Y-1.3125
X6.7375Y-1.3125
X7.1375Y-1.3125
X2.9875Y-1.3125
X3.3875Y-1.3125
X10.1375Y-1.3125
X1.3938Y-2.0625
X1.7937Y-2.0625
X9.55Y-2.8125
X10.8875Y-1.3125
X6.6437Y-3.5625
X7.0438Y-3.5625
X8.45Y-2.8125
X8.9875Y-1.3125
X9.3875Y-1.3125
X10.7687Y-2.8125
X11.1687Y-2.8125
X8.05Y-2.8125
X5.425Y-2.0625
X5.825Y-2.0625
X1.3Y-1.3125
X1.7Y-1.3125
X11.425Y-4.3125
X11.825Y-4.3125
X9.175Y-2.0625
X9.575Y-2.0625
X5.2375Y-1.3125
X5.6375Y-1.3125
X1.5813Y-2.8125
X1.9812Y-2.8125
X6.2687Y-3.5625
X6.6688Y-3.5625
X6.175Y-2.0625
X6.55Y-2.8125
X9.925Y-3.5625
X10.325Y-3.5625
X3.925Y-2.0625
X4.325Y-2.0625
X6.575Y-2.0625
X6.95Y-2.8125
X2.6125Y-3.5625
X3.0125Y-3.5625
X3.7375Y-1.3125
X4.1375Y-1.3125
X7.4875Y-1.3125
X10.9562Y-2.0625
X8.1437Y-3.5625
X8.5437Y-3.5625
X7.8875Y-1.3125
X11.3562Y-2.0625
X2.425Y-2.0625
X2.825Y-2.0625
X1.1125Y-3.5625
X1.5125Y-3.5625
X8.8Y-2.8125
X9.925Y-4.3125
X7.675Y-2.0625
X8.075Y-2.0625
X4.3Y-2.8125
X4.7Y-2.8125
X10.325Y-4.3125
X5.9875Y-1.3125
X6.3875Y-1.3125
X2.2375Y-1.3125
X2.6375Y-1.3125
X9.2Y-2.8125
T4
X5.3772Y-4.3125
X5.8103Y-4.3125
X6.4085Y-4.3125
X6.8415Y-4.3125
X1.9085Y-4.3125
X2.3415Y-4.3125
X1.096Y-4.3125
X1.529Y-4.3125
X7.221Y-4.3125
X7.654Y-4.3125
X2.9397Y-4.3125
X3.3728Y-4.3125
X8.0335Y-4.3125
X8.4665Y-4.3125
X3.7522Y-4.3125
X4.1853Y-4.3125
X4.5647Y-4.3125
X4.9978Y-4.3125
X8.846Y-4.3125
X9.279Y-4.3125
T5
X7.3137Y-3.2875
X10.4987Y-2.5375
X11.4387Y-2.5375
X4.5003Y-3.2875
X8.4373Y-3.2875
X4.4988Y-3.2875
X5.4387Y-3.2875
X6.3738Y-3.2875
X1.3113Y-2.5375
X2.2512Y-2.5375
T6
X5.5938Y-4.3125
X6.625Y-4.3125
X1.3125Y-4.3125
X2.125Y-4.3125
X7.4375Y-4.3125
X3.1562Y-4.3125
X8.25Y-4.3125
X3.9688Y-4.3125
X4.7812Y-4.3125
X9.0625Y-4.3125
T7
X1.3113Y-3.1375
X3.0Y-2.8125
X7.125Y-2.0625
X3.6562Y-3.5625
X6.0Y-2.8125
X10.125Y-2.0625
X4.6875Y-1.3125
X2.0625Y-3.5625
X1.7812Y-2.8125
X2.2512Y-3.1375
X4.4988Y-3.8875
X11.4375Y-1.3125
X6.375Y-2.0625
X10.125Y-4.3125
X7.875Y-2.0625
X7.6875Y-1.3125
X11.1562Y-2.0625
X6.1875Y-1.3125
X4.5003Y-3.8875
X8.4373Y-3.8875
X4.125Y-2.0625
X4.5Y-2.8125
X1.3125Y-3.5625
X6.4688Y-3.5625
X6.75Y-2.8125
X10.125Y-3.5625
X4.9688Y-3.5625
X5.4387Y-3.8875
X2.625Y-2.0625
X8.3438Y-3.5625
X2.4375Y-1.3125
X9.0Y-2.8125
X5.25Y-2.8125
X4.875Y-2.0625
X10.875Y-3.5625
X7.5Y-2.8125
X9.2812Y-3.5625
X8.4375Y-1.3125
X3.375Y-2.0625
X6.3738Y-3.8875
X6.8438Y-3.5625
X7.3137Y-3.8875
X8.625Y-2.0625
X9.9375Y-1.3125
X6.9375Y-1.3125
X3.1875Y-1.3125
X10.875Y-4.3125
X9.75Y-2.8125
X5.4375Y-1.3125
X1.5938Y-2.0625
X8.25Y-2.8125
X3.75Y-2.8125
X10.6875Y-1.3125
X5.625Y-2.0625
X11.625Y-3.5625
X1.5Y-1.3125
X10.4987Y-3.1375
X10.9688Y-2.8125
X11.4387Y-3.1375
X11.625Y-4.3125
X2.8125Y-3.5625
X9.1875Y-1.3125
X9.375Y-2.0625
X3.9375Y-1.3125
T0
M30
